<svg xmlns="http://www.w3.org/2000/svg" version="1.1" xmlns:xlink="http://www.w3.org/1999/xlink" xmlns:svgjs="http://svgjs.dev/svgjs" width="1920" height="1090" preserveAspectRatio="none" viewBox="0 0 1920 1090"><g mask="url(&quot;#SvgjsMask1044&quot;)" fill="none"><rect width="1920" height="1090" x="0" y="0" fill="rgba(25, 25, 25, 1)"></rect><path d="M679.28-3.79C514.14 180.45 637.1 912.17 359.23 932.7 81.37 953.23-96.41 575.15-280.86 562.1" stroke="rgba(255, 255, 255, 1)" stroke-width="2"></path><path d="M1844.52-20.9C1631.96 25.95 1553.14 577.33 1219.29 584.99 885.44 592.65 906.67 448.74 594.05 448.74 281.44 448.74 128.79 584.2-31.18 584.99" stroke="rgba(255, 255, 255, 1)" stroke-width="2"></path><path d="M1048.97-138.86C830.29-43.04 796.06 637.68 503.55 645.06 211.04 652.44 120.71 301.07-41.87 285.36" stroke="rgba(255, 255, 255, 1)" stroke-width="2"></path><path d="M901.73-32.56C698.7 14.7 615.48 553.91 311.18 556.12 6.88 558.33-114.61 269.82-279.37 261.82" stroke="rgba(255, 255, 255, 1)" stroke-width="2"></path><path d="M864.43-144.34C677.65-94.57 682.05 358.59 336.82 420.87-8.41 483.15-32.01 764-190.79 780.57" stroke="rgba(255, 255, 255, 1)" stroke-width="2"></path></g><defs><mask id="SvgjsMask1044"><rect width="1920" height="1090" fill="#ffffff"></rect></mask></defs></svg>